<svg width="30" height="21" viewBox="0 0 30 21" fill="none" xmlns="http://www.w3.org/2000/svg">
<path d="M23.9961 12.9111C23.6802 12.9111 23.4167 12.8046 23.2056 12.5917C22.9945 12.3787 22.8889 12.1148 22.8889 11.8V8.68887H19.7778C19.463 8.68887 19.1991 8.58201 18.9861 8.3683C18.7731 8.15459 18.6667 7.88978 18.6667 7.57387C18.6667 7.25796 18.7731 6.99444 18.9861 6.78333C19.1991 6.57222 19.463 6.46667 19.7778 6.46667H22.8889V3.35553C22.8889 3.04073 22.9958 2.77684 23.2095 2.56387C23.4232 2.35091 23.688 2.24443 24.0039 2.24443C24.3198 2.24443 24.5833 2.35091 24.7944 2.56387C25.0055 2.77684 25.1111 3.04073 25.1111 3.35553V6.46667H28.2222C28.537 6.46667 28.8009 6.57352 29.0139 6.78723C29.2269 7.00095 29.3333 7.26576 29.3333 7.58167C29.3333 7.89758 29.2269 8.16109 29.0139 8.3722C28.8009 8.58331 28.537 8.68887 28.2222 8.68887H25.1111V11.8C25.1111 12.1148 25.0042 12.3787 24.7905 12.5917C24.5768 12.8046 24.312 12.9111 23.9961 12.9111ZM10.6667 10.2222C9.2 10.2222 7.98148 9.73702 7.0111 8.76667C6.04074 7.79629 5.55557 6.57777 5.55557 5.1111C5.55557 3.64443 6.04074 2.42592 7.0111 1.45557C7.98148 0.485189 9.2 0 10.6667 0C12.1333 0 13.3519 0.485189 14.3222 1.45557C15.2926 2.42592 15.7778 3.64443 15.7778 5.1111C15.7778 6.57777 15.2926 7.79629 14.3222 8.76667C13.3519 9.73702 12.1333 10.2222 10.6667 10.2222ZM1.1111 20.9111C0.7963 20.9111 0.532411 20.8046 0.319433 20.5917C0.106478 20.3787 0 20.1148 0 19.8V17.5778C0 16.8074 0.198144 16.1056 0.594433 15.4722C0.990745 14.8389 1.53334 14.363 2.22223 14.0444C3.79261 13.3259 5.24697 12.8093 6.5853 12.4944C7.92366 12.1796 9.28291 12.0222 10.6631 12.0222C12.0432 12.0222 13.4037 12.1796 14.7444 12.4944C16.0852 12.8093 17.5333 13.3259 19.0889 14.0444C19.7778 14.3778 20.3241 14.8574 20.7278 15.4833C21.1315 16.1093 21.3333 16.8074 21.3333 17.5778V19.8C21.3333 20.1148 21.2269 20.3787 21.0139 20.5917C20.8009 20.8046 20.537 20.9111 20.2222 20.9111H1.1111ZM2.2222 18.6889H19.1111V17.5778C19.1111 17.2593 19.0315 16.9593 18.8722 16.6778C18.713 16.3963 18.4741 16.1852 18.1556 16.0444C16.7185 15.3407 15.4296 14.8648 14.2889 14.6167C13.1481 14.3685 11.9407 14.2444 10.6667 14.2444C9.3926 14.2444 8.18519 14.3722 7.04443 14.6278C5.9037 14.8833 4.60741 15.3555 3.15557 16.0444C2.86666 16.1852 2.63887 16.3963 2.4722 16.6778C2.30553 16.9593 2.2222 17.2593 2.2222 17.5778V18.6889ZM10.6667 8C11.4889 8 12.1759 7.72408 12.7278 7.17223C13.2796 6.62037 13.5556 5.93332 13.5556 5.1111C13.5556 4.28888 13.2796 3.60184 12.7278 3.05C12.1759 2.49813 11.4889 2.2222 10.6667 2.2222C9.84445 2.2222 9.15741 2.49813 8.60557 3.05C8.0537 3.60184 7.77777 4.28888 7.77777 5.1111C7.77777 5.93332 8.0537 6.62037 8.60557 7.17223C9.15741 7.72408 9.84445 8 10.6667 8Z" fill="white"/>
</svg>
